<svg xmlns="http://www.w3.org/2000/svg" viewBox="0 0 64 64">
  <rect width="64" height="64" rx="12" fill="#13131A"/>
  <g transform="translate(6.5 19.5) scale(0.63)" fill="#F11D00">
    <path d="M46.4225 37.1103C44.7702 38.7447 42.8837 39.3273 40.9279 39.3273C39.3126 39.3273 28.0817 39.3273 26.8299 39.3273C25.578 39.3273 24.8801 38.4202 24.8801 37.3248C24.8801 36.7221 25.0552 36.2911 25.4562 35.8945C25.9567 35.3994 59.5084 2.21012 59.5084 2.21012C61.1162 0.619762 63.0269 0.0646629 64.9307 0.0646629C66.8345 0.0646629 77.8908 0.0646629 79.0287 0.0646629C80.6817 0.0646629 81.7227 2.11984 80.4024 3.42593C78.9326 4.87984 48.722 34.8357 46.4225 37.1103Z"/>
    <path d="M21.5522 37.1103C19.8999 38.7447 18.0133 39.3273 16.0576 39.3273C14.4423 39.3273 3.21138 39.3273 1.95952 39.3273C0.707659 39.3273 0.00976562 38.4202 0.00976562 37.3248C0.00976562 36.7221 0.184858 36.2911 0.585869 35.8945C1.08637 35.3994 34.638 2.21012 34.638 2.21012C36.2458 0.619762 38.1564 0.0646629 40.0604 0.0646629C41.9643 0.0646629 53.0204 0.0646629 54.1583 0.0646629C55.8113 0.0646629 56.8523 2.11984 55.5321 3.42593C54.0623 4.87984 23.8516 34.8357 21.5522 37.1103Z"/>
  </g>
</svg>
